<svg width="16" height="20" viewBox="0 0 16 20" fill="none" xmlns="http://www.w3.org/2000/svg">
<path d="M8.22787 6.0185C7.49787 6.0185 6.36786 5.1885 5.17786 5.2185C3.60786 5.2385 2.16786 6.1285 1.35786 7.5385C-0.272144 10.3685 0.937856 14.5485 2.52786 16.8485C3.30786 17.9685 4.22786 19.2285 5.44786 19.1885C6.61786 19.1385 7.05787 18.4285 8.47787 18.4285C9.88787 18.4285 10.2879 19.1885 11.5279 19.1585C12.7879 19.1385 13.5879 18.0185 14.3579 16.8885C15.2479 15.5885 15.6179 14.3285 15.6379 14.2585C15.6079 14.2485 13.1879 13.3185 13.1579 10.5185C13.1379 8.1785 15.0679 7.0585 15.1579 7.0085C14.0579 5.3985 12.3679 5.2185 11.7779 5.1785C10.2379 5.0585 8.94787 6.0185 8.22787 6.0185ZM10.8279 3.6585C11.4779 2.8785 11.9079 1.7885 11.7879 0.708496C10.8579 0.748496 9.73787 1.3285 9.06787 2.1085C8.46787 2.7985 7.94787 3.9085 8.08787 4.9685C9.11787 5.0485 10.1779 4.4385 10.8279 3.6585Z" fill="#0F0F0F"/>
</svg>
